<?xml version="1.0" encoding="UTF-8"?>
<svg id="Layer_2" xmlns="http://www.w3.org/2000/svg" viewBox="0 0 606.88 113.14">
  <defs>
    <style>.cls-1{fill:#fff;}.cls-2{fill:#534741;}.cls-3{fill:#56bf81;}</style>
  </defs>
  <g id="Layer_1-2">
    <g>
      <g>
        <path class="cls-1"
          d="m310.68,7.17c0,.6-.15,1.29-.45,2.09l-39.26,100.77c-.8,1.89-1.79,2.84-2.99,2.84-1.29,0-2.29-.84-2.99-2.54l-27.92-58.08-28.22,58.08c-.8,1.69-1.79,2.54-2.99,2.54s-2.19-.94-2.99-2.84L163.93,9.26c-.3-.8-.45-1.44-.45-1.94,0-.99.35-1.79,1.04-2.39.7-.6,1.69-.9,2.99-.9h16.12c2.59,0,4.28,1.19,5.08,3.58l19.71,53,25.68-53.15c.9-1.69,1.89-2.54,2.99-2.54,1.29,0,2.29.85,2.99,2.54l25.68,53.15,20.15-53c.8-2.39,2.49-3.58,5.08-3.58h15.82c2.59,0,3.88,1.04,3.88,3.13Z" />
        <path class="cls-1"
          d="m385.1,38.29c5.22,5.92,7.84,14.66,7.84,26.2v44.04c0,1.4-.4,2.49-1.2,3.28-.8.8-1.89,1.19-3.28,1.19h-13.74c-1.4,0-2.49-.4-3.28-1.19-.8-.8-1.2-1.89-1.2-3.28v-44.04c0-5.67-1.42-9.85-4.25-12.54-2.84-2.69-6.74-4.03-11.72-4.03-4.58,0-8.39,1.74-11.42,5.23-3.04,3.48-4.46,8.96-4.26,16.42v38.97c0,1.4-.4,2.49-1.2,3.28-.8.8-1.89,1.19-3.28,1.19h-13.29c-1.4,0-2.49-.4-3.28-1.19-.8-.8-1.19-1.89-1.19-3.28V4.48c0-1.39.4-2.49,1.19-3.28.8-.8,1.89-1.19,3.28-1.19h13.29c1.39,0,2.49.4,3.28,1.19.8.8,1.2,1.89,1.2,3.28v33.74c2.69-2.69,6.05-4.83,10.08-6.42,4.03-1.59,7.99-2.39,11.87-2.39,11.14,0,19.33,2.96,24.56,8.88Z" />
        <path class="cls-1"
          d="m423.1,108.75c-6.67-2.84-12.29-7.25-16.87-13.23-4.88-6.27-7.32-14.5-7.32-24.69,0-8.33,1.96-15.67,5.9-22.04,3.93-6.37,9.28-11.29,16.05-14.77,6.77-3.48,14.33-5.22,22.69-5.22,7.36,0,14.26,1.59,20.68,4.78,6.42,3.18,11.67,7.77,15.75,13.74,2.69,3.92,4.43,7.74,5.23,11.46.8,3.72,1.19,8.08,1.19,13.08,0,2.06-.55,3.77-1.64,5.14-1.1,1.37-2.64,2.06-4.63,2.06h-58.97c1.09,5.1,3.83,8.82,8.21,11.17,4.38,2.35,9.11,3.53,14.18,3.53,4.08,0,7.56-.59,10.45-1.76,2.89-1.18,5.47-2.84,7.76-5,1.29-1.08,2.49-1.62,3.58-1.62.9,0,1.79.29,2.69.88l9.7,5.59c1.59.88,2.39,1.96,2.39,3.23,0,.79-.4,1.72-1.19,2.79-9.16,10.09-20.95,15.14-35.38,15.14-6.97,0-13.79-1.42-20.45-4.26Zm5.3-56.29c-3.93,2.94-6.15,6.61-6.64,11.02h41.06c-.3-2.65-1.3-5.14-2.99-7.5-1.69-2.35-3.93-4.26-6.72-5.73-2.79-1.47-6.02-2.2-9.7-2.2-6.07,0-11.07,1.47-15,4.41Z" />
        <path class="cls-1"
          d="m515.81,108.75c-6.67-2.84-12.29-7.25-16.87-13.23-4.88-6.27-7.32-14.5-7.32-24.69,0-8.33,1.96-15.67,5.9-22.04,3.93-6.37,9.28-11.29,16.05-14.77,6.77-3.48,14.33-5.22,22.69-5.22,7.36,0,14.26,1.59,20.68,4.78,6.42,3.18,11.67,7.77,15.75,13.74,2.69,3.92,4.43,7.74,5.23,11.46.8,3.72,1.19,8.08,1.19,13.08,0,2.06-.55,3.77-1.64,5.14-1.1,1.37-2.64,2.06-4.63,2.06h-58.97c1.09,5.1,3.83,8.82,8.21,11.17,4.38,2.35,9.11,3.53,14.18,3.53,4.08,0,7.56-.59,10.45-1.76,2.89-1.18,5.47-2.84,7.76-5,1.29-1.08,2.49-1.62,3.58-1.62.9,0,1.79.29,2.69.88l9.7,5.59c1.59.88,2.39,1.96,2.39,3.23,0,.79-.4,1.72-1.19,2.79-9.16,10.09-20.95,15.14-35.38,15.14-6.97,0-13.79-1.42-20.45-4.26Zm5.3-56.29c-3.93,2.94-6.15,6.61-6.64,11.02h41.06c-.3-2.65-1.3-5.14-2.99-7.5-1.69-2.35-3.93-4.26-6.72-5.73-2.79-1.47-6.02-2.2-9.7-2.2-6.07,0-11.07,1.47-15,4.41Z" />
        <path class="cls-1"
          d="m585.68,111.82c-.8-.8-1.19-1.89-1.19-3.28V4.63c0-1.39.4-2.49,1.19-3.28.8-.8,1.89-1.19,3.28-1.19h13.44c1.39,0,2.49.4,3.28,1.19.8.8,1.19,1.89,1.19,3.28v103.91c0,1.4-.4,2.49-1.19,3.28-.8.8-1.89,1.19-3.28,1.19h-13.44c-1.4,0-2.49-.4-3.28-1.19Z" />
      </g>
      <path class="cls-3"
        d="m22.24,111.82c-.8.8-1.89,1.19-3.28,1.19H4.48c-1.4,0-2.49-.4-3.28-1.19-.8-.8-1.19-1.89-1.19-3.28V8.36c0-1.39.4-2.49,1.19-3.28.8-.8,1.89-1.19,3.28-1.19h44.04c7.76,0,14.63,1.59,20.6,4.78,5.97,3.19,10.6,7.67,13.88,13.44,3.28,5.77,4.93,12.34,4.93,19.71,0,7.86-1.99,14.88-5.97,21.05-3.98,6.17-9.41,10.7-16.27,13.59l4.18,5.37c1.89,2.39,4.43,5.65,7.61,9.78,3.18,4.13,7.22,9.43,12.09,15.9.8.9,1.19,1.84,1.19,2.84,0,.8-.32,1.44-.97,1.94-.65.5-1.57.75-2.76.75h-17.92c-2.29,0-4.13-.84-5.52-2.54-7.57-9.65-15.58-20.15-24.04-31.5h-16.12v29.56c0,1.4-.4,2.49-1.19,3.28Zm26.28-53.3c4.38,0,8.14-1.52,11.27-4.55,3.13-3.03,4.7-7.09,4.7-12.17s-1.27-9.01-3.81-12.39c-2.54-3.38-6.59-5.08-12.17-5.08h-25.08v34.19h25.08Z" />
      <g>
        <polygon class="cls-3"
          points="214.39 25.46 214.99 28.95 212.61 33.77 210.68 38.71 209.96 40.69 209.72 42.16 62.94 106.1 60.95 105.5 59.88 104.41 54.88 102.62 49.75 100.15 47.99 97.91 214.39 25.46" />
        <path class="cls-2"
          d="m44.06,107.69c1.31,2.2,4.14,2.98,6.49,1.95l3.27-1.42c-.22.42-.5.83-.82,1.19-.58.67-1.32,1.22-2.19,1.6-3.24,1.41-7.02-.15-8.3-3.48s.49-6.94,3.73-8.1c.75-.27,1.51-.38,2.26-.36,2.34.07,4.54,1.46,5.53,3.74.11.26.2.52.28.79l-4.63-1.82-3.31-1.3c-2.74,1.19-3.89,4.55-2.31,7.21Z" />
        <path class="cls-2"
          d="m225.13,29.27c.85,2.98-.73,6.2-3.58,7.4-.68.29-1.37.44-2.06.48-.67.04-1.33-.03-1.96-.21l3.72-1.62c2.35-1.02,3.71-3.62,2.99-6.08-.87-2.97-4.11-4.42-6.85-3.22l-3.34,8.5c-.24-.34-.44-.7-.62-1.1-1.07-2.46-.44-5.23,1.39-6.99.52-.49,1.13-.91,1.83-1.21,3.41-1.49,7.43.33,8.49,4.05Z" />
        <g>
          <path class="cls-1"
            d="m153.05,52.16l-43.7,19.03c.08.58.18,1.17.3,1.75l44.47-19.36c-.34-.49-.7-.95-1.07-1.41Zm73.76-24.58c-1.71-4.16-6.51-6.09-10.62-4.3l-45.86,19.96-.17.07-17.99,7.83-3.07,1.33-37.52,16.34-2.37,1.04-18,7.83-.05.02-45.73,19.91c-4.05,1.76-6.14,6.44-4.46,10.53,1.72,4.16,6.52,6.08,10.62,4.3l45.91-19.99.12-.05,18.02-7.84,57.57-25.07,49.15-21.4c4.05-1.77,6.14-6.44,4.46-10.53Zm-51.64,27.81l-1.73.76-11.29,4.91-48.47,21.11-17.67,7.69h-.01s-32.49,14.15-32.49,14.15c-1.85-.73-5.63-2.21-9.41-3.7l-3.84-1.51,41.73-18.17,17.66-7.69,44.47-19.36,17.66-7.69h.02s41.71-18.17,41.71-18.17l-1.51,3.84c-1.49,3.78-2.98,7.57-3.7,9.41l-33.13,14.42Zm-121.35,52.83l-3.27,1.42c-2.35,1.02-5.18.25-6.49-1.96-1.58-2.66-.43-6.02,2.31-7.21l3.31,1.3,4.63,1.82,5.31,2.09-5.8,2.53ZM212.17,39.27l1.87-4.76,3.34-8.49c2.74-1.19,5.98.25,6.85,3.22.72,2.46-.64,5.06-2.99,6.08l-3.72,1.62-5.36,2.33Zm-59.12,12.89l-43.7,19.03c.08.58.18,1.17.3,1.75l44.47-19.36c-.34-.49-.7-.95-1.07-1.41Z" />
          <path class="cls-1"
            d="m225.89,28.69c.89,3.03-.79,6.23-3.69,7.49l-11.18,4.87,2.31-5.86,4.12-10.47c3.37-1.47,7.37.31,8.44,3.97Z" />
          <path class="cls-1"
            d="m61.64,106.05l-11.12,4.84c-2.88,1.25-6.35.31-7.95-2.39-1.94-3.26-.53-7.38,2.83-8.84l4.06,1.6,5.68,2.23,6.51,2.56Z" />
        </g>
        <path class="cls-3"
          d="m179.54,78.82l-.04.15c-2.52,7.65-6.61,14.18-12.14,19.41-4.79,5.26-10.63,9.24-17.35,11.81-4.56,1.75-9.36,2.72-14.21,2.91-5.33.21-10.71-.52-15.85-2.2h-.14s-.27-.14-.27-.14c-9.43-3.16-17.66-9.37-23.17-17.52l-1.48-2.36c-.08-.12-.14-.21-.18-.28-.19-.35-.39-.68-.57-1.03-.06-.09-.11-.17-.15-.27-.32-.59-.65-1.24-.99-1.96-.98-2.06-1.8-4.17-2.45-6.28l-.07-.25c-.15-.51-.29-.99-.41-1.48-.12-.4-.22-.84-.32-1.27-2.09-8.99-1.39-18.27,2.02-26.89l.02-.04s.01-.03.02-.05l.02-.07c4.66-11.6,13.58-20.52,25.16-25.17,7.68-3.11,16.1-4.01,24.32-2.62,12.25,2.07,23.22,9.09,30.09,19.27.25.34.5.74.74,1.13.32.48.62.97.91,1.49.11.17.21.34.3.52l.08.14c.3.52.6,1.09.91,1.73.25.47.48.96.71,1.45.13.27.24.56.35.88l.02.02.13.41s.01.06.02.09l.02.07c.18.65.28,1.31.31,1.95.07,1.7-1.47,2.53-2.6,3.14-.36.2-1.82-.94-1.95-.77-.72,1.22-1.07,1.44-2.29.96-.21-.08.03,1.53-.24,1.66l-.54.27-.21-.06-1.65-2.35.04,1.04c-.32.13-1.97.33-2.3.47-1.81.72-2.81,2.02-4.75,1.72-.39-.05.09,2.13-.21,2.1-2.2-.26-3.23-.63-4.62-3.34-.15-.29-.29-.55-.45-.82-.38-.69-.8-1.34-1.23-1.95-.31-.45-.64-.87-1.01-1.34-.25-.3-.53-.62-.81-.92-6.29-6.89-16.37-9.37-25.07-6.21-9.87,3.57-16.17,13.34-15.32,23.77.03.42.07.83.13,1.24.07.51.16,1.05.28,1.65.31,1.43.74,2.82,1.29,4.15.66,1.59,1.5,3.11,2.5,4.52.1.14.26.35.45.6,0,.01.01.02.02.03l1.37,1.62c6.5,7.05,16.8,9.45,25.64,5.98,5.46-2.15,9.87-6.23,12.44-11.49l.07-.13c.62-1,1.19-2.11,1.67-3.26l.03-.09c.91-1.84,2.05-3.06,3.39-3.65,1.06-.46,2.29-.59,3.63-.36l11.12,1.32c1.42.16,2.59.6,3.45,1.3.53.43.95.99,1.24,1.65.46,1.03.5,2.34.13,4Z" />
        <circle class="cls-1" cx="129.77" cy="69.66" r="2.41" />
        <circle class="cls-1" cx="137.99" cy="66.08" r="2.41" />
      </g>
    </g>
  </g>
</svg>